<svg width="600" height="960" viewBox="0 0 600 960" fill="none" xmlns="http://www.w3.org/2000/svg">
<path fill-rule="evenodd" clip-rule="evenodd" d="M484.572 767.424C484.572 763.005 480.99 759.424 476.572 759.424H400.597C374.901 759.424 356.546 754.352 345.533 744.208C334.52 734.063 329.013 717.464 329.013 694.409V392.553C329.013 388.135 332.595 384.553 337.013 384.553H475.195C479.613 384.553 483.195 380.972 483.195 376.553V196.127C483.195 191.708 479.613 188.127 475.195 188.127H337.013C332.595 188.127 329.013 184.545 329.013 180.127V8C329.013 3.58172 325.431 0 321.013 0H101.61C97.1921 0 93.6104 3.58171 93.6104 7.99999V180.127C93.6104 184.545 90.0287 188.127 85.6104 188.127H8C3.58172 188.127 0 191.708 0 196.127V376.553C0 380.972 3.58173 384.553 8.00001 384.553H85.6104C90.0287 384.553 93.6104 388.135 93.6104 392.553V691.643C93.6104 786.628 117.472 855.331 165.195 897.752C212.918 939.251 279.455 960 364.805 960H476.572C480.99 960 484.572 956.418 484.572 952V767.424ZM127.234 310.614C141.606 310.614 153.257 298.906 153.257 284.464C153.257 270.022 141.606 258.314 127.234 258.314C112.861 258.314 101.21 270.022 101.21 284.464C101.21 298.906 112.861 310.614 127.234 310.614ZM266.027 284.464C266.027 298.906 254.376 310.614 240.003 310.614C225.631 310.614 213.98 298.906 213.98 284.464C213.98 270.022 225.631 258.314 240.003 258.314C254.376 258.314 266.027 270.022 266.027 284.464ZM352.773 310.614C367.146 310.614 378.797 298.906 378.797 284.464C378.797 270.022 367.146 258.314 352.773 258.314C338.401 258.314 326.75 270.022 326.75 284.464C326.75 298.906 338.401 310.614 352.773 310.614Z" fill="url(#paint0_linear_1_143)"/>
<path d="M438.315 503.549L415.012 484.036C414.172 483.333 414.054 482.084 414.748 481.236L492.264 386.503C493.039 385.557 494.475 385.521 495.295 386.428L535.625 431.006C536.42 431.884 536.282 433.256 535.329 433.958L440.785 503.626C440.042 504.173 439.022 504.141 438.315 503.549Z" fill="url(#paint1_linear_1_143)"/>
<path d="M474.218 587.545V562.718C474.218 561.828 474.806 561.045 475.661 560.798L584.924 529.127C586.039 528.804 587.194 529.495 587.436 530.631L599.485 587.128C599.75 588.372 598.801 589.545 597.529 589.545H476.218C475.114 589.545 474.218 588.649 474.218 587.545Z" fill="url(#paint2_linear_1_143)"/>
<path d="M414.989 668.523L434.247 647.236C434.809 646.615 435.699 646.41 436.476 646.723L541.573 688.965C542.668 689.405 543.146 690.692 542.604 691.74L516.492 742.197C515.929 743.285 514.53 743.616 513.54 742.896L415.296 671.482C414.335 670.783 414.192 669.404 414.989 668.523Z" fill="url(#paint3_linear_1_143)"/>
<defs>
<linearGradient id="paint0_linear_1_143" x1="242.286" y1="0" x2="242.286" y2="960" gradientUnits="userSpaceOnUse">
<stop stop-color="#FF8F08"/>
<stop offset="1" stop-color="#FF5900"/>
</linearGradient>
<linearGradient id="paint1_linear_1_143" x1="506.748" y1="384.705" x2="506.748" y2="744.264" gradientUnits="userSpaceOnUse">
<stop stop-color="#FF8F08"/>
<stop offset="1" stop-color="#FF5900"/>
</linearGradient>
<linearGradient id="paint2_linear_1_143" x1="506.748" y1="384.705" x2="506.748" y2="744.264" gradientUnits="userSpaceOnUse">
<stop stop-color="#FF8F08"/>
<stop offset="1" stop-color="#FF5900"/>
</linearGradient>
<linearGradient id="paint3_linear_1_143" x1="506.748" y1="384.705" x2="506.748" y2="744.264" gradientUnits="userSpaceOnUse">
<stop stop-color="#FF8F08"/>
<stop offset="1" stop-color="#FF5900"/>
</linearGradient>
</defs>
</svg>
