<svg width="250" height="250" viewBox="0 0 250 250" fill="none" xmlns="http://www.w3.org/2000/svg">
<rect width="250" height="250" rx="24" fill="url(#paint0_linear_1_116)"/>
<path d="M156.133 129.768L152.861 127.041C152.017 126.338 151.898 125.084 152.597 124.235L168.366 105.056C169.14 104.114 170.57 104.079 171.391 104.981L178.34 112.625C179.139 113.504 179.001 114.881 178.043 115.584L158.596 129.844C157.855 130.388 156.839 130.356 156.133 129.768Z" fill="white"/>
<path d="M165.335 148.27V145.274C165.335 144.383 165.924 143.599 166.78 143.353L189.274 136.864C190.388 136.543 191.541 137.233 191.784 138.367L193.816 147.85C194.083 149.095 193.134 150.27 191.861 150.27H167.335C166.23 150.27 165.335 149.374 165.335 148.27Z" fill="white"/>
<path d="M152.839 167.115L155.401 164.297C155.963 163.679 156.849 163.475 157.624 163.785L179.284 172.449C180.382 172.889 180.862 174.18 180.316 175.229L175.904 183.714C175.341 184.797 173.947 185.127 172.957 184.411L153.147 170.08C152.18 169.381 152.037 167.997 152.839 167.115Z" fill="white"/>
<path d="M159.722 189.248C164.14 189.248 167.722 192.83 167.722 197.248V227.27C167.722 231.688 164.14 235.27 159.722 235.27H140.109C120.43 235.27 105.09 230.509 94.087 220.987C83.0841 211.254 77.5826 195.49 77.5826 173.696V111.235C77.5826 106.817 74.0009 103.235 69.5826 103.235H64C59.5817 103.235 56 99.6531 56 95.2348V66.1652C56 61.7469 59.5817 58.1652 64 58.1652H69.5826C74.0009 58.1652 77.5826 54.5835 77.5826 50.1652V23C77.5826 18.5817 81.1643 15 85.5826 15H123.857C128.275 15 131.857 18.5817 131.857 23V50.1652C131.857 54.5835 135.438 58.1652 139.857 58.1652H159.404C163.823 58.1652 167.404 61.7469 167.404 66.1652V95.2348C167.404 99.6531 163.823 103.235 159.404 103.235H139.857C135.438 103.235 131.857 106.817 131.857 111.235V174.33C131.857 179.62 133.126 183.429 135.665 185.757C138.204 188.084 142.436 189.248 148.361 189.248H159.722Z" fill="white"/>
<path d="M89.3347 116.003V99.2695C89.3347 97.3839 89.3347 96.4411 89.9205 95.8553C90.5063 95.2695 91.4491 95.2695 93.3347 95.2695H106.931C110.574 95.2695 112.396 95.2695 112.939 96.41C113.481 97.5504 112.333 98.9643 110.035 101.792L96.4392 118.526C93.4773 122.171 91.9964 123.994 90.6656 123.521C89.3347 123.049 89.3347 120.7 89.3347 116.003Z" fill="url(#paint1_linear_1_116)"/>
<rect x="60.3347" y="62.2695" width="103" height="37" rx="4" fill="url(#paint2_linear_1_116)"/>
<circle cx="85.3347" cy="80.2695" r="6" fill="white"/>
<circle cx="111.335" cy="80.2695" r="6" fill="white"/>
<circle cx="137.335" cy="80.2695" r="6" fill="white"/>
<defs>
<linearGradient id="paint0_linear_1_116" x1="125" y1="0" x2="125" y2="250" gradientUnits="userSpaceOnUse">
<stop stop-color="#FF8F08"/>
<stop offset="1" stop-color="#FF5900"/>
</linearGradient>
<linearGradient id="paint1_linear_1_116" x1="102.335" y1="95.2695" x2="102.335" y2="127.27" gradientUnits="userSpaceOnUse">
<stop stop-color="#FF7D07"/>
<stop offset="1" stop-color="#FF7605"/>
</linearGradient>
<linearGradient id="paint2_linear_1_116" x1="111.835" y1="62.2695" x2="111.835" y2="99.2695" gradientUnits="userSpaceOnUse">
<stop stop-color="#FF8F08"/>
<stop offset="1" stop-color="#FF7B06"/>
</linearGradient>
</defs>
</svg>
